{
	"asset":{
		"generator":"Khronos glTF Blender I/O v5.2.40",
		"version":"2.0"
	},
	"extensionsUsed":[
		"KHR_materials_transmission",
		"KHR_materials_ior"
	],
	"scene":0,
	"scenes":[
		{
			"name":"Scene",
			"nodes":[
				0,
				1,
				2,
				3,
				4,
				5
			]
		}
	],
	"nodes":[
		{
			"mesh":0,
			"name":"Foundation_Cornices"
		},
		{
			"mesh":1,
			"name":"Frames_And_Doors"
		},
		{
			"mesh":2,
			"name":"Glazing_Panes"
		},
		{
			"mesh":3,
			"name":"Metal_Details"
		},
		{
			"mesh":4,
			"name":"Roof_Structure"
		},
		{
			"mesh":5,
			"name":"Walls_Facade"
		}
	],
	"materials":[
		{
			"doubleSided":true,
			"name":"Concrete05",
			"normalTexture":{
				"index":0
			},
			"pbrMetallicRoughness":{
				"baseColorTexture":{
					"index":1
				},
				"metallicFactor":0,
				"roughnessFactor":0.75
			}
		},
		{
			"doubleSided":true,
			"name":"Wood01",
			"pbrMetallicRoughness":{
				"baseColorTexture":{
					"index":2
				},
				"metallicFactor":0,
				"roughnessFactor":0.3499999940395355
			}
		},
		{
			"alphaMode":"BLEND",
			"doubleSided":true,
			"extensions":{
				"KHR_materials_transmission":{
					"transmissionFactor":0.15000000596046448
				},
				"KHR_materials_ior":{
					"ior":1.5199999809265137
				}
			},
			"name":"Translucent_Glass_Gray",
			"pbrMetallicRoughness":{
				"baseColorFactor":[
					0.07999999821186066,
					0.11999999731779099,
					0.18000000715255737,
					0.8999999761581421
				],
				"metallicFactor":0.8999999761581421,
				"roughnessFactor":0.05000000074505806
			}
		},
		{
			"doubleSided":true,
			"name":"Metal",
			"pbrMetallicRoughness":{
				"baseColorFactor":[
					0.18000000715255737,
					0.1899999976158142,
					0.20999999344348907,
					1
				],
				"metallicFactor":0.949999988079071,
				"roughnessFactor":0.25
			}
		},
		{
			"doubleSided":true,
			"name":"Roof01",
			"pbrMetallicRoughness":{
				"baseColorTexture":{
					"index":3
				},
				"metallicFactor":0.05000000074505806,
				"roughnessFactor":0.699999988079071
			}
		},
		{
			"doubleSided":true,
			"name":"Bricks026",
			"normalTexture":{
				"index":4
			},
			"pbrMetallicRoughness":{
				"baseColorTexture":{
					"index":5
				},
				"metallicFactor":0,
				"roughnessFactor":0.8500000238418579
			}
		}
	],
	"meshes":[
		{
			"name":"Foundation_Cornices_Mesh",
			"primitives":[
				{
					"attributes":{
						"POSITION":0,
						"NORMAL":1,
						"TEXCOORD_0":2
					},
					"indices":3,
					"material":0
				}
			]
		},
		{
			"name":"Frames_And_Doors_Mesh",
			"primitives":[
				{
					"attributes":{
						"POSITION":4,
						"NORMAL":5,
						"TEXCOORD_0":6
					},
					"indices":7,
					"material":1
				}
			]
		},
		{
			"name":"Glazing_Panes_Mesh",
			"primitives":[
				{
					"attributes":{
						"POSITION":8,
						"NORMAL":9,
						"TEXCOORD_0":10
					},
					"indices":11,
					"material":2
				}
			]
		},
		{
			"name":"Metal_Details_Mesh",
			"primitives":[
				{
					"attributes":{
						"POSITION":12,
						"NORMAL":13,
						"TEXCOORD_0":14
					},
					"indices":15,
					"material":3
				}
			]
		},
		{
			"name":"Roof_Structure_Mesh",
			"primitives":[
				{
					"attributes":{
						"POSITION":16,
						"NORMAL":17,
						"TEXCOORD_0":18
					},
					"indices":19,
					"material":4
				}
			]
		},
		{
			"name":"Walls_Facade_Mesh",
			"primitives":[
				{
					"attributes":{
						"POSITION":20,
						"NORMAL":21,
						"TEXCOORD_0":22
					},
					"indices":23,
					"material":5
				}
			]
		}
	],
	"textures":[
		{
			"sampler":0,
			"source":0
		},
		{
			"sampler":0,
			"source":1
		},
		{
			"sampler":0,
			"source":2
		},
		{
			"sampler":0,
			"source":3
		},
		{
			"sampler":0,
			"source":4
		},
		{
			"sampler":0,
			"source":5
		}
	],
	"images":[
		{
			"mimeType":"image/png",
			"name":"Concrete05_normal",
			"uri":"Concrete05_normal.png"
		},
		{
			"mimeType":"image/jpeg",
			"name":"Concrete05_baseColor",
			"uri":"Concrete05_baseColor.jpg"
		},
		{
			"mimeType":"image/jpeg",
			"name":"Wood01_baseColor",
			"uri":"Wood01_baseColor.jpg"
		},
		{
			"mimeType":"image/jpeg",
			"name":"Roof01_baseColor",
			"uri":"Roof01_baseColor.jpg"
		},
		{
			"mimeType":"image/png",
			"name":"Bricks026_normal",
			"uri":"Bricks026_normal.png"
		},
		{
			"mimeType":"image/jpeg",
			"name":"Bricks026_baseColor",
			"uri":"Bricks026_baseColor.jpg"
		}
	],
	"accessors":[
		{
			"bufferView":0,
			"componentType":5126,
			"count":5412,
			"max":[
				23.899999618530273,
				17.729999542236328,
				8.699999809265137
			],
			"min":[
				-24.75,
				-0.05000000074505806,
				-7.900000095367432
			],
			"type":"VEC3"
		},
		{
			"bufferView":1,
			"componentType":5126,
			"count":5412,
			"type":"VEC3"
		},
		{
			"bufferView":2,
			"componentType":5126,
			"count":5412,
			"type":"VEC2"
		},
		{
			"bufferView":3,
			"componentType":5123,
			"count":8496,
			"type":"SCALAR"
		},
		{
			"bufferView":4,
			"componentType":5126,
			"count":18648,
			"max":[
				20.68000030517578,
				14.699999809265137,
				7.070000171661377
			],
			"min":[
				-20.68000030517578,
				0.44999998807907104,
				-6.679999828338623
			],
			"type":"VEC3"
		},
		{
			"bufferView":5,
			"componentType":5126,
			"count":18648,
			"type":"VEC3"
		},
		{
			"bufferView":6,
			"componentType":5126,
			"count":18648,
			"type":"VEC2"
		},
		{
			"bufferView":7,
			"componentType":5123,
			"count":27972,
			"type":"SCALAR"
		},
		{
			"bufferView":8,
			"componentType":5126,
			"count":2976,
			"max":[
				20.639999389648438,
				14.670000076293945,
				7.039999961853027
			],
			"min":[
				-20.639999389648438,
				1.809999942779541,
				-6.650000095367432
			],
			"type":"VEC3"
		},
		{
			"bufferView":9,
			"componentType":5126,
			"count":2976,
			"type":"VEC3"
		},
		{
			"bufferView":10,
			"componentType":5126,
			"count":2976,
			"type":"VEC2"
		},
		{
			"bufferView":11,
			"componentType":5123,
			"count":4464,
			"type":"SCALAR"
		},
		{
			"bufferView":12,
			"componentType":5126,
			"count":6752,
			"max":[
				22.520000457763672,
				17.100000381469727,
				8.37377643585205
			],
			"min":[
				-24.799999237060547,
				0.07724084705114365,
				-6.950070381164551
			],
			"type":"VEC3"
		},
		{
			"bufferView":13,
			"componentType":5126,
			"count":6752,
			"type":"VEC3"
		},
		{
			"bufferView":14,
			"componentType":5126,
			"count":6752,
			"type":"VEC2"
		},
		{
			"bufferView":15,
			"componentType":5123,
			"count":10128,
			"type":"SCALAR"
		},
		{
			"bufferView":16,
			"componentType":5126,
			"count":100,
			"max":[
				22.149999618530273,
				17.520000457763672,
				6.579999923706055
			],
			"min":[
				-24.780000686645508,
				1.100000023841858,
				-6.150000095367432
			],
			"type":"VEC3"
		},
		{
			"bufferView":17,
			"componentType":5126,
			"count":100,
			"type":"VEC3"
		},
		{
			"bufferView":18,
			"componentType":5126,
			"count":100,
			"type":"VEC2"
		},
		{
			"bufferView":19,
			"componentType":5123,
			"count":150,
			"type":"SCALAR"
		},
		{
			"bufferView":20,
			"componentType":5126,
			"count":5436,
			"max":[
				22.520000457763672,
				17.649999618530273,
				7.170000076293945
			],
			"min":[
				-24.700000762939453,
				0.44999998807907104,
				-6.519999980926514
			],
			"type":"VEC3"
		},
		{
			"bufferView":21,
			"componentType":5126,
			"count":5436,
			"type":"VEC3"
		},
		{
			"bufferView":22,
			"componentType":5126,
			"count":5436,
			"type":"VEC2"
		},
		{
			"bufferView":23,
			"componentType":5123,
			"count":8532,
			"type":"SCALAR"
		}
	],
	"bufferViews":[
		{
			"buffer":0,
			"byteLength":64944,
			"byteOffset":0,
			"target":34962
		},
		{
			"buffer":0,
			"byteLength":64944,
			"byteOffset":64944,
			"target":34962
		},
		{
			"buffer":0,
			"byteLength":43296,
			"byteOffset":129888,
			"target":34962
		},
		{
			"buffer":0,
			"byteLength":16992,
			"byteOffset":173184,
			"target":34963
		},
		{
			"buffer":0,
			"byteLength":223776,
			"byteOffset":190176,
			"target":34962
		},
		{
			"buffer":0,
			"byteLength":223776,
			"byteOffset":413952,
			"target":34962
		},
		{
			"buffer":0,
			"byteLength":149184,
			"byteOffset":637728,
			"target":34962
		},
		{
			"buffer":0,
			"byteLength":55944,
			"byteOffset":786912,
			"target":34963
		},
		{
			"buffer":0,
			"byteLength":35712,
			"byteOffset":842856,
			"target":34962
		},
		{
			"buffer":0,
			"byteLength":35712,
			"byteOffset":878568,
			"target":34962
		},
		{
			"buffer":0,
			"byteLength":23808,
			"byteOffset":914280,
			"target":34962
		},
		{
			"buffer":0,
			"byteLength":8928,
			"byteOffset":938088,
			"target":34963
		},
		{
			"buffer":0,
			"byteLength":81024,
			"byteOffset":947016,
			"target":34962
		},
		{
			"buffer":0,
			"byteLength":81024,
			"byteOffset":1028040,
			"target":34962
		},
		{
			"buffer":0,
			"byteLength":54016,
			"byteOffset":1109064,
			"target":34962
		},
		{
			"buffer":0,
			"byteLength":20256,
			"byteOffset":1163080,
			"target":34963
		},
		{
			"buffer":0,
			"byteLength":1200,
			"byteOffset":1183336,
			"target":34962
		},
		{
			"buffer":0,
			"byteLength":1200,
			"byteOffset":1184536,
			"target":34962
		},
		{
			"buffer":0,
			"byteLength":800,
			"byteOffset":1185736,
			"target":34962
		},
		{
			"buffer":0,
			"byteLength":300,
			"byteOffset":1186536,
			"target":34963
		},
		{
			"buffer":0,
			"byteLength":65232,
			"byteOffset":1186836,
			"target":34962
		},
		{
			"buffer":0,
			"byteLength":65232,
			"byteOffset":1252068,
			"target":34962
		},
		{
			"buffer":0,
			"byteLength":43488,
			"byteOffset":1317300,
			"target":34962
		},
		{
			"buffer":0,
			"byteLength":17064,
			"byteOffset":1360788,
			"target":34963
		}
	],
	"samplers":[
		{
			"magFilter":9729,
			"minFilter":9987
		}
	],
	"buffers":[
		{
			"byteLength":1377852,
			"uri":"scene.bin"
		}
	]
}
