{
	"asset":{
		"generator":"Khronos glTF Blender I/O v4.5.48",
		"version":"2.0"
	},
	"scene":0,
	"scenes":[
		{
			"name":"Scene",
			"nodes":[
				0
			]
		}
	],
	"nodes":[
		{
			"mesh":0,
			"name":"Cube.001"
		}
	],
	"materials":[
		{
			"doubleSided":true,
			"name":"Material.001",
			"pbrMetallicRoughness":{
				"baseColorFactor":[
					0.4515869915485382,
					0.03027299977838993,
					0.0545089989900589,
					1
				],
				"metallicFactor":0,
				"roughnessFactor":0.5
			}
		},
		{
			"doubleSided":true,
			"name":"Material.002",
			"pbrMetallicRoughness":{
				"baseColorFactor":[
					0.015329999849200249,
					0.004009999800473452,
					0.22593499720096588,
					1
				],
				"metallicFactor":0,
				"roughnessFactor":0.5
			}
		},
		{
			"doubleSided":true,
			"name":"Material.003",
			"pbrMetallicRoughness":{
				"baseColorTexture":{
					"index":0
				},
				"metallicFactor":0,
				"roughnessFactor":0.5
			}
		}
	],
	"meshes":[
		{
			"name":"Cube.001",
			"primitives":[
				{
					"attributes":{
						"POSITION":0,
						"NORMAL":1,
						"TEXCOORD_0":2
					},
					"indices":3,
					"material":0
				},
				{
					"attributes":{
						"POSITION":4,
						"NORMAL":5,
						"TEXCOORD_0":6
					},
					"indices":7,
					"material":1
				},
				{
					"attributes":{
						"POSITION":8,
						"NORMAL":9,
						"TEXCOORD_0":10
					},
					"indices":11,
					"material":2
				}
			]
		}
	],
	"textures":[
		{
			"sampler":0,
			"source":0
		}
	],
	"images":[
		{
			"mimeType":"image/jpeg",
			"name":"textur-gas-kvas-com-5gk8-p-tekstura-material-kirpicha-2",
			"uri":"textur-gas-kvas-com-5gk8-p-tekstura-material-kirpicha-2.jpg"
		}
	],
	"accessors":[
		{
			"bufferView":0,
			"componentType":5126,
			"count":270,
			"max":[
				6.413257598876953,
				12.574577331542969,
				8.70128345489502
			],
			"min":[
				-6.413257598876953,
				-6.413258075714111,
				-11.086471557617188
			],
			"type":"VEC3"
		},
		{
			"bufferView":1,
			"componentType":5126,
			"count":270,
			"type":"VEC3"
		},
		{
			"bufferView":2,
			"componentType":5126,
			"count":270,
			"type":"VEC2"
		},
		{
			"bufferView":3,
			"componentType":5123,
			"count":738,
			"type":"SCALAR"
		},
		{
			"bufferView":4,
			"componentType":5126,
			"count":110,
			"max":[
				6.413257598876953,
				6.413257122039795,
				15.565361022949219
			],
			"min":[
				-6.413257598876953,
				-6.4132585525512695,
				8.701282501220703
			],
			"type":"VEC3"
		},
		{
			"bufferView":5,
			"componentType":5126,
			"count":110,
			"type":"VEC3"
		},
		{
			"bufferView":6,
			"componentType":5126,
			"count":110,
			"type":"VEC2"
		},
		{
			"bufferView":7,
			"componentType":5123,
			"count":378,
			"type":"SCALAR"
		},
		{
			"bufferView":8,
			"componentType":5126,
			"count":24,
			"max":[
				6.41325569152832,
				6.413257122039795,
				15.565361022949219
			],
			"min":[
				-6.413257598876953,
				-3.2066290378570557,
				-11.086471557617188
			],
			"type":"VEC3"
		},
		{
			"bufferView":9,
			"componentType":5126,
			"count":24,
			"type":"VEC3"
		},
		{
			"bufferView":10,
			"componentType":5126,
			"count":24,
			"type":"VEC2"
		},
		{
			"bufferView":11,
			"componentType":5123,
			"count":72,
			"type":"SCALAR"
		}
	],
	"bufferViews":[
		{
			"buffer":0,
			"byteLength":3240,
			"byteOffset":0,
			"target":34962
		},
		{
			"buffer":0,
			"byteLength":3240,
			"byteOffset":3240,
			"target":34962
		},
		{
			"buffer":0,
			"byteLength":2160,
			"byteOffset":6480,
			"target":34962
		},
		{
			"buffer":0,
			"byteLength":1476,
			"byteOffset":8640,
			"target":34963
		},
		{
			"buffer":0,
			"byteLength":1320,
			"byteOffset":10116,
			"target":34962
		},
		{
			"buffer":0,
			"byteLength":1320,
			"byteOffset":11436,
			"target":34962
		},
		{
			"buffer":0,
			"byteLength":880,
			"byteOffset":12756,
			"target":34962
		},
		{
			"buffer":0,
			"byteLength":756,
			"byteOffset":13636,
			"target":34963
		},
		{
			"buffer":0,
			"byteLength":288,
			"byteOffset":14392,
			"target":34962
		},
		{
			"buffer":0,
			"byteLength":288,
			"byteOffset":14680,
			"target":34962
		},
		{
			"buffer":0,
			"byteLength":192,
			"byteOffset":14968,
			"target":34962
		},
		{
			"buffer":0,
			"byteLength":144,
			"byteOffset":15160,
			"target":34963
		}
	],
	"samplers":[
		{
			"magFilter":9729,
			"minFilter":9987
		}
	],
	"buffers":[
		{
			"byteLength":15304,
			"uri":"model_five.bin"
		}
	]
}
