{
	"asset":{
		"generator":"Khronos glTF Blender I/O v5.0.21",
		"version":"2.0"
	},
	"scene":0,
	"scenes":[
		{
			"name":"Scene",
			"nodes":[
				17
			]
		}
	],
	"nodes":[
		{
			"mesh":0,
			"name":"Material2"
		},
		{
			"mesh":1,
			"name":"Material2.001"
		},
		{
			"mesh":2,
			"name":"Material2.002"
		},
		{
			"mesh":3,
			"name":"Material2.003"
		},
		{
			"mesh":4,
			"name":"Material2.004"
		},
		{
			"mesh":5,
			"name":"Material2.005"
		},
		{
			"mesh":6,
			"name":"Material2.006"
		},
		{
			"mesh":7,
			"name":"Material2.007"
		},
		{
			"name":"Material2.008"
		},
		{
			"mesh":8,
			"name":"Material2.009"
		},
		{
			"mesh":9,
			"name":"Material2.010"
		},
		{
			"mesh":10,
			"name":"Material2.011"
		},
		{
			"mesh":11,
			"name":"Material3"
		},
		{
			"mesh":12,
			"name":"Material3.001"
		},
		{
			"mesh":13,
			"name":"Material3.002"
		},
		{
			"name":"SketchUp"
		},
		{
			"children":[
				0,
				1,
				2,
				3,
				4,
				5,
				6,
				7,
				8,
				9,
				10,
				11,
				12,
				13,
				14,
				15
			],
			"name":"Collada visual scene group"
		},
		{
			"children":[
				16
			],
			"name":"Sketchfab_model",
			"rotation":[
				-0.70710688829422,
				0,
				0,
				0.7071066498756409
			],
			"scale":[
				0.050000011920928955,
				0.05000001937150955,
				0.05000001937150955
			],
			"translation":[
				-0.2969779968261719,
				0.07770106196403503,
				1.8747735023498535
			]
		}
	],
	"materials":[
		{
			"name":"Bricks026",
			"pbrMetallicRoughness":{
				"baseColorFactor":[
					0.800000011920929,
					0.800000011920929,
					0.800000011920929,
					1
				],
				"metallicFactor":0
			}
		},
		{
			"name":"Concrete05",
			"normalTexture":{
				"index":0
			},
			"pbrMetallicRoughness":{
				"baseColorTexture":{
					"index":1
				},
				"metallicFactor":0,
				"metallicRoughnessTexture":{
					"index":2
				}
			}
		},
		{
			"name":"material",
			"pbrMetallicRoughness":{
				"metallicFactor":0,
				"roughnessFactor":0.6000000238418579
			}
		},
		{
			"name":"Wood01",
			"pbrMetallicRoughness":{
				"baseColorTexture":{
					"index":3
				},
				"metallicFactor":0,
				"roughnessFactor":0.7070101499557495
			}
		},
		{
			"name":"block01",
			"pbrMetallicRoughness":{
				"baseColorTexture":{
					"index":4
				},
				"metallicFactor":0,
				"roughnessFactor":0.8954954743385315
			}
		},
		{
			"name":"Roof01",
			"pbrMetallicRoughness":{
				"baseColorTexture":{
					"index":5
				},
				"metallicFactor":0,
				"roughnessFactor":0.9015756845474243
			}
		},
		{
			"name":"soffit",
			"pbrMetallicRoughness":{
				"baseColorTexture":{
					"index":6
				},
				"metallicFactor":0,
				"roughnessFactor":0.6000000238418579
			}
		},
		{
			"name":"Siding03",
			"normalTexture":{
				"index":7
			},
			"pbrMetallicRoughness":{
				"baseColorTexture":{
					"index":8
				},
				"metallicFactor":0,
				"metallicRoughnessTexture":{
					"index":9
				}
			}
		},
		{
			"name":"Color_M08",
			"pbrMetallicRoughness":{
				"baseColorFactor":[
					0.11764699965715408,
					0.11764699965715408,
					0.11764699965715408,
					1
				],
				"metallicFactor":0,
				"roughnessFactor":0.27531784772872925
			}
		},
		{
			"alphaMode":"BLEND",
			"name":"Translucent_Glass_Gray",
			"pbrMetallicRoughness":{
				"baseColorFactor":[
					0.15426279604434967,
					0.12940426170825958,
					0.12940426170825958,
					0.7982127070426941
				],
				"metallicFactor":0.2813980281352997,
				"roughnessFactor":0
			}
		},
		{
			"name":"Shutter",
			"normalTexture":{
				"index":10
			},
			"pbrMetallicRoughness":{
				"baseColorTexture":{
					"index":11
				},
				"metallicFactor":0,
				"roughnessFactor":0.6948497891426086
			}
		},
		{
			"name":"material_0",
			"pbrMetallicRoughness":{
				"baseColorFactor":[
					0.6431369781494141,
					0.6980389952659607,
					0.7333329916000366,
					1
				],
				"metallicFactor":0,
				"roughnessFactor":0.6000000238418579
			}
		},
		{
			"name":"Handle",
			"pbrMetallicRoughness":{
				"baseColorFactor":[
					0.22745099663734436,
					0.22745099663734436,
					0.22745099663734436,
					1
				],
				"metallicFactor":0,
				"roughnessFactor":0.1841152459383011
			}
		},
		{
			"emissiveFactor":[
				0.4190889596939087,
				0.39334654808044434,
				0.3016201853752136
			],
			"name":"Light",
			"pbrMetallicRoughness":{
				"baseColorFactor":[
					1,
					0.8980389833450317,
					0.6000000238418579,
					1
				],
				"metallicFactor":0,
				"roughnessFactor":0.6000000238418579
			}
		}
	],
	"meshes":[
		{
			"name":"Material2",
			"primitives":[
				{
					"attributes":{
						"POSITION":0,
						"NORMAL":1,
						"TEXCOORD_0":2
					},
					"indices":3,
					"material":0
				}
			]
		},
		{
			"name":"Material2.001",
			"primitives":[
				{
					"attributes":{
						"POSITION":4,
						"NORMAL":5,
						"TEXCOORD_0":6
					},
					"indices":7,
					"material":1
				}
			]
		},
		{
			"name":"Material2.002",
			"primitives":[
				{
					"attributes":{
						"POSITION":8,
						"NORMAL":9
					},
					"indices":10,
					"material":2
				}
			]
		},
		{
			"name":"Material2.003",
			"primitives":[
				{
					"attributes":{
						"POSITION":11,
						"NORMAL":12,
						"TEXCOORD_0":13
					},
					"indices":14,
					"material":3
				}
			]
		},
		{
			"name":"Material2.004",
			"primitives":[
				{
					"attributes":{
						"POSITION":15,
						"NORMAL":16,
						"TEXCOORD_0":17
					},
					"indices":18,
					"material":4
				}
			]
		},
		{
			"name":"Material2.005",
			"primitives":[
				{
					"attributes":{
						"POSITION":19,
						"NORMAL":20,
						"TEXCOORD_0":21
					},
					"indices":22,
					"material":5
				}
			]
		},
		{
			"name":"Material2.006",
			"primitives":[
				{
					"attributes":{
						"POSITION":23,
						"NORMAL":24,
						"TEXCOORD_0":25
					},
					"indices":26,
					"material":6
				}
			]
		},
		{
			"name":"Material2.007",
			"primitives":[
				{
					"attributes":{
						"POSITION":27,
						"NORMAL":28,
						"TEXCOORD_0":29
					},
					"indices":30,
					"material":7
				}
			]
		},
		{
			"name":"Material2.009",
			"primitives":[
				{
					"attributes":{
						"POSITION":31,
						"NORMAL":32
					},
					"indices":33,
					"material":8
				}
			]
		},
		{
			"name":"Material2.010",
			"primitives":[
				{
					"attributes":{
						"POSITION":34,
						"NORMAL":35
					},
					"indices":36,
					"material":9
				}
			]
		},
		{
			"name":"Material2.011",
			"primitives":[
				{
					"attributes":{
						"POSITION":37,
						"NORMAL":38,
						"TEXCOORD_0":39
					},
					"indices":40,
					"material":10
				}
			]
		},
		{
			"name":"Material3",
			"primitives":[
				{
					"attributes":{
						"POSITION":41,
						"NORMAL":42
					},
					"indices":43,
					"material":11
				}
			]
		},
		{
			"name":"Material3.001",
			"primitives":[
				{
					"attributes":{
						"POSITION":44,
						"NORMAL":45
					},
					"indices":46,
					"material":12
				}
			]
		},
		{
			"name":"Material3.002",
			"primitives":[
				{
					"attributes":{
						"POSITION":47,
						"NORMAL":48
					},
					"indices":49,
					"material":13
				}
			]
		}
	],
	"textures":[
		{
			"sampler":0,
			"source":0
		},
		{
			"sampler":0,
			"source":1
		},
		{
			"sampler":0,
			"source":2
		},
		{
			"sampler":0,
			"source":3
		},
		{
			"sampler":0,
			"source":4
		},
		{
			"sampler":0,
			"source":5
		},
		{
			"sampler":0,
			"source":6
		},
		{
			"sampler":0,
			"source":7
		},
		{
			"sampler":0,
			"source":8
		},
		{
			"sampler":0,
			"source":9
		},
		{
			"sampler":0,
			"source":10
		},
		{
			"sampler":0,
			"source":11
		}
	],
	"images":[
		{
			"mimeType":"image/png",
			"name":"Concrete05_normal",
			"uri":"Concrete05_normal.png"
		},
		{
			"mimeType":"image/jpeg",
			"name":"Concrete05_baseColor",
			"uri":"Concrete05_baseColor.jpg"
		},
		{
			"mimeType":"image/png",
			"name":"Concrete05_metallicRoughness",
			"uri":"Concrete05_metallicRoughness.png"
		},
		{
			"mimeType":"image/jpeg",
			"name":"Wood01_baseColor",
			"uri":"Wood01_baseColor.jpg"
		},
		{
			"mimeType":"image/jpeg",
			"name":"block01_baseColor",
			"uri":"block01_baseColor.jpg"
		},
		{
			"mimeType":"image/jpeg",
			"name":"Roof01_baseColor",
			"uri":"Roof01_baseColor.jpg"
		},
		{
			"mimeType":"image/jpeg",
			"name":"soffit_baseColor",
			"uri":"soffit_baseColor.jpg"
		},
		{
			"mimeType":"image/png",
			"name":"Siding03_normal",
			"uri":"Siding03_normal.png"
		},
		{
			"mimeType":"image/jpeg",
			"name":"Siding03_baseColor",
			"uri":"Siding03_baseColor.jpg"
		},
		{
			"mimeType":"image/png",
			"name":"Siding03_metallicRoughness",
			"uri":"Siding03_metallicRoughness.png"
		},
		{
			"mimeType":"image/png",
			"name":"Shutter_normal",
			"uri":"Shutter_normal.png"
		},
		{
			"mimeType":"image/jpeg",
			"name":"Shutter_baseColor",
			"uri":"Shutter_baseColor.jpg"
		}
	],
	"accessors":[
		{
			"bufferView":0,
			"componentType":5126,
			"count":340,
			"max":[
				155.27220153808594,
				268.6544189453125,
				264.49609375
			],
			"min":[
				-154.72779846191406,
				-194.360595703125,
				20
			],
			"type":"VEC3"
		},
		{
			"bufferView":1,
			"componentType":5126,
			"count":340,
			"type":"VEC3"
		},
		{
			"bufferView":2,
			"componentType":5126,
			"count":340,
			"type":"VEC2"
		},
		{
			"bufferView":3,
			"componentType":5123,
			"count":840,
			"type":"SCALAR"
		},
		{
			"bufferView":4,
			"componentType":5126,
			"count":280,
			"max":[
				144.27220153808594,
				293.014404296875,
				268.55859375
			],
			"min":[
				-143.72779846191406,
				-86.99002838134766,
				0
			],
			"type":"VEC3"
		},
		{
			"bufferView":5,
			"componentType":5126,
			"count":280,
			"type":"VEC3"
		},
		{
			"bufferView":6,
			"componentType":5126,
			"count":280,
			"type":"VEC2"
		},
		{
			"bufferView":7,
			"componentType":5123,
			"count":504,
			"type":"SCALAR"
		},
		{
			"bufferView":8,
			"componentType":5126,
			"count":12,
			"max":[
				38.127071380615234,
				192.014404296875,
				264.49609375
			],
			"min":[
				-24.14189338684082,
				-86.99002838134766,
				24
			],
			"type":"VEC3"
		},
		{
			"bufferView":9,
			"componentType":5126,
			"count":12,
			"type":"VEC3"
		},
		{
			"bufferView":10,
			"componentType":5123,
			"count":30,
			"type":"SCALAR"
		},
		{
			"bufferView":11,
			"componentType":5126,
			"count":7943,
			"max":[
				155.27220153808594,
				271.014404296875,
				231.87069702148438
			],
			"min":[
				-154.72779846191406,
				-205.360595703125,
				24
			],
			"type":"VEC3"
		},
		{
			"bufferView":12,
			"componentType":5126,
			"count":7943,
			"type":"VEC3"
		},
		{
			"bufferView":13,
			"componentType":5126,
			"count":7943,
			"type":"VEC2"
		},
		{
			"bufferView":14,
			"componentType":5123,
			"count":12936,
			"type":"SCALAR"
		},
		{
			"bufferView":15,
			"componentType":5126,
			"count":36,
			"max":[
				144.27220153808594,
				271.014404296875,
				20
			],
			"min":[
				-143.72779846191406,
				-194.360595703125,
				0
			],
			"type":"VEC3"
		},
		{
			"bufferView":16,
			"componentType":5126,
			"count":36,
			"type":"VEC3"
		},
		{
			"bufferView":17,
			"componentType":5126,
			"count":36,
			"type":"VEC2"
		},
		{
			"bufferView":18,
			"componentType":5123,
			"count":60,
			"type":"SCALAR"
		},
		{
			"bufferView":19,
			"componentType":5126,
			"count":88,
			"max":[
				155.27220153808594,
				271.014404296875,
				231.87069702148438
			],
			"min":[
				-154.72779846191406,
				-205.360595703125,
				123.625
			],
			"type":"VEC3"
		},
		{
			"bufferView":20,
			"componentType":5126,
			"count":88,
			"type":"VEC3"
		},
		{
			"bufferView":21,
			"componentType":5126,
			"count":88,
			"type":"VEC2"
		},
		{
			"bufferView":22,
			"componentType":5123,
			"count":168,
			"type":"SCALAR"
		},
		{
			"bufferView":23,
			"componentType":5126,
			"count":80,
			"max":[
				155.27220153808594,
				202.014404296875,
				223.87069702148438
			],
			"min":[
				-154.72779846191406,
				-205.360595703125,
				132
			],
			"type":"VEC3"
		},
		{
			"bufferView":24,
			"componentType":5126,
			"count":80,
			"type":"VEC3"
		},
		{
			"bufferView":25,
			"componentType":5126,
			"count":80,
			"type":"VEC2"
		},
		{
			"bufferView":26,
			"componentType":5123,
			"count":120,
			"type":"SCALAR"
		},
		{
			"bufferView":27,
			"componentType":5126,
			"count":28,
			"max":[
				133.27220153808594,
				107.7068099975586,
				217.87069702148438
			],
			"min":[
				-132.72779846191406,
				-111.05296325683594,
				153.03970336914062
			],
			"type":"VEC3"
		},
		{
			"bufferView":28,
			"componentType":5126,
			"count":28,
			"type":"VEC3"
		},
		{
			"bufferView":29,
			"componentType":5126,
			"count":28,
			"type":"VEC2"
		},
		{
			"bufferView":30,
			"componentType":5123,
			"count":84,
			"type":"SCALAR"
		},
		{
			"bufferView":31,
			"componentType":5126,
			"count":3379,
			"max":[
				-17.873905181884766,
				193.554443359375,
				64.89605712890625
			],
			"min":[
				-19.01371955871582,
				191.85450744628906,
				58.49903869628906
			],
			"type":"VEC3"
		},
		{
			"bufferView":32,
			"componentType":5126,
			"count":3379,
			"type":"VEC3"
		},
		{
			"bufferView":33,
			"componentType":5123,
			"count":10692,
			"type":"SCALAR"
		},
		{
			"bufferView":34,
			"componentType":5126,
			"count":232,
			"max":[
				143.52220153808594,
				191.389404296875,
				195.47210693359375
			],
			"min":[
				-142.97779846191406,
				-193.610595703125,
				54.23432922363281
			],
			"type":"VEC3"
		},
		{
			"bufferView":35,
			"componentType":5126,
			"count":232,
			"type":"VEC3"
		},
		{
			"bufferView":36,
			"componentType":5123,
			"count":348,
			"type":"SCALAR"
		},
		{
			"bufferView":37,
			"componentType":5126,
			"count":800,
			"max":[
				145.14720153808594,
				191.889404296875,
				112.79682922363281
			],
			"min":[
				-144.60279846191406,
				-195.235595703125,
				48.67182922363281
			],
			"type":"VEC3"
		},
		{
			"bufferView":38,
			"componentType":5126,
			"count":800,
			"type":"VEC3"
		},
		{
			"bufferView":39,
			"componentType":5126,
			"count":800,
			"type":"VEC2"
		},
		{
			"bufferView":40,
			"componentType":5123,
			"count":1200,
			"type":"SCALAR"
		},
		{
			"bufferView":41,
			"componentType":5126,
			"count":253,
			"max":[
				38.127071380615234,
				230.35633850097656,
				264.49609375
			],
			"min":[
				-24.14189338684082,
				-86.99002838134766,
				24
			],
			"type":"VEC3"
		},
		{
			"bufferView":42,
			"componentType":5126,
			"count":253,
			"type":"VEC3"
		},
		{
			"bufferView":43,
			"componentType":5123,
			"count":1110,
			"type":"SCALAR"
		},
		{
			"bufferView":44,
			"componentType":5126,
			"count":918,
			"max":[
				5.114130973815918,
				230.35633850097656,
				119.3125
			],
			"min":[
				-18.80345344543457,
				193.21267700195312,
				63.20824432373047
			],
			"type":"VEC3"
		},
		{
			"bufferView":45,
			"componentType":5126,
			"count":918,
			"type":"VEC3"
		},
		{
			"bufferView":46,
			"componentType":5123,
			"count":1830,
			"type":"SCALAR"
		},
		{
			"bufferView":47,
			"componentType":5126,
			"count":145,
			"max":[
				4.591963768005371,
				229.83416748046875,
				118.75
			],
			"min":[
				-4.047535419464111,
				221.19467163085938,
				117.375
			],
			"type":"VEC3"
		},
		{
			"bufferView":48,
			"componentType":5126,
			"count":145,
			"type":"VEC3"
		},
		{
			"bufferView":49,
			"componentType":5123,
			"count":792,
			"type":"SCALAR"
		}
	],
	"bufferViews":[
		{
			"buffer":0,
			"byteLength":4080,
			"byteOffset":0,
			"target":34962
		},
		{
			"buffer":0,
			"byteLength":4080,
			"byteOffset":4080,
			"target":34962
		},
		{
			"buffer":0,
			"byteLength":2720,
			"byteOffset":8160,
			"target":34962
		},
		{
			"buffer":0,
			"byteLength":1680,
			"byteOffset":10880,
			"target":34963
		},
		{
			"buffer":0,
			"byteLength":3360,
			"byteOffset":12560,
			"target":34962
		},
		{
			"buffer":0,
			"byteLength":3360,
			"byteOffset":15920,
			"target":34962
		},
		{
			"buffer":0,
			"byteLength":2240,
			"byteOffset":19280,
			"target":34962
		},
		{
			"buffer":0,
			"byteLength":1008,
			"byteOffset":21520,
			"target":34963
		},
		{
			"buffer":0,
			"byteLength":144,
			"byteOffset":22528,
			"target":34962
		},
		{
			"buffer":0,
			"byteLength":144,
			"byteOffset":22672,
			"target":34962
		},
		{
			"buffer":0,
			"byteLength":60,
			"byteOffset":22816,
			"target":34963
		},
		{
			"buffer":0,
			"byteLength":95316,
			"byteOffset":22876,
			"target":34962
		},
		{
			"buffer":0,
			"byteLength":95316,
			"byteOffset":118192,
			"target":34962
		},
		{
			"buffer":0,
			"byteLength":63544,
			"byteOffset":213508,
			"target":34962
		},
		{
			"buffer":0,
			"byteLength":25872,
			"byteOffset":277052,
			"target":34963
		},
		{
			"buffer":0,
			"byteLength":432,
			"byteOffset":302924,
			"target":34962
		},
		{
			"buffer":0,
			"byteLength":432,
			"byteOffset":303356,
			"target":34962
		},
		{
			"buffer":0,
			"byteLength":288,
			"byteOffset":303788,
			"target":34962
		},
		{
			"buffer":0,
			"byteLength":120,
			"byteOffset":304076,
			"target":34963
		},
		{
			"buffer":0,
			"byteLength":1056,
			"byteOffset":304196,
			"target":34962
		},
		{
			"buffer":0,
			"byteLength":1056,
			"byteOffset":305252,
			"target":34962
		},
		{
			"buffer":0,
			"byteLength":704,
			"byteOffset":306308,
			"target":34962
		},
		{
			"buffer":0,
			"byteLength":336,
			"byteOffset":307012,
			"target":34963
		},
		{
			"buffer":0,
			"byteLength":960,
			"byteOffset":307348,
			"target":34962
		},
		{
			"buffer":0,
			"byteLength":960,
			"byteOffset":308308,
			"target":34962
		},
		{
			"buffer":0,
			"byteLength":640,
			"byteOffset":309268,
			"target":34962
		},
		{
			"buffer":0,
			"byteLength":240,
			"byteOffset":309908,
			"target":34963
		},
		{
			"buffer":0,
			"byteLength":336,
			"byteOffset":310148,
			"target":34962
		},
		{
			"buffer":0,
			"byteLength":336,
			"byteOffset":310484,
			"target":34962
		},
		{
			"buffer":0,
			"byteLength":224,
			"byteOffset":310820,
			"target":34962
		},
		{
			"buffer":0,
			"byteLength":168,
			"byteOffset":311044,
			"target":34963
		},
		{
			"buffer":0,
			"byteLength":40548,
			"byteOffset":311212,
			"target":34962
		},
		{
			"buffer":0,
			"byteLength":40548,
			"byteOffset":351760,
			"target":34962
		},
		{
			"buffer":0,
			"byteLength":21384,
			"byteOffset":392308,
			"target":34963
		},
		{
			"buffer":0,
			"byteLength":2784,
			"byteOffset":413692,
			"target":34962
		},
		{
			"buffer":0,
			"byteLength":2784,
			"byteOffset":416476,
			"target":34962
		},
		{
			"buffer":0,
			"byteLength":696,
			"byteOffset":419260,
			"target":34963
		},
		{
			"buffer":0,
			"byteLength":9600,
			"byteOffset":419956,
			"target":34962
		},
		{
			"buffer":0,
			"byteLength":9600,
			"byteOffset":429556,
			"target":34962
		},
		{
			"buffer":0,
			"byteLength":6400,
			"byteOffset":439156,
			"target":34962
		},
		{
			"buffer":0,
			"byteLength":2400,
			"byteOffset":445556,
			"target":34963
		},
		{
			"buffer":0,
			"byteLength":3036,
			"byteOffset":447956,
			"target":34962
		},
		{
			"buffer":0,
			"byteLength":3036,
			"byteOffset":450992,
			"target":34962
		},
		{
			"buffer":0,
			"byteLength":2220,
			"byteOffset":454028,
			"target":34963
		},
		{
			"buffer":0,
			"byteLength":11016,
			"byteOffset":456248,
			"target":34962
		},
		{
			"buffer":0,
			"byteLength":11016,
			"byteOffset":467264,
			"target":34962
		},
		{
			"buffer":0,
			"byteLength":3660,
			"byteOffset":478280,
			"target":34963
		},
		{
			"buffer":0,
			"byteLength":1740,
			"byteOffset":481940,
			"target":34962
		},
		{
			"buffer":0,
			"byteLength":1740,
			"byteOffset":483680,
			"target":34962
		},
		{
			"buffer":0,
			"byteLength":1584,
			"byteOffset":485420,
			"target":34963
		}
	],
	"samplers":[
		{
			"magFilter":9729,
			"minFilter":9987
		}
	],
	"buffers":[
		{
			"byteLength":487004,
			"uri":"Untitled.bin"
		}
	]
}
