{
	"asset":{
		"generator":"Khronos glTF Blender I/O v5.2.40",
		"version":"2.0"
	},
	"extensionsUsed":[
		"KHR_materials_transmission",
		"KHR_materials_ior"
	],
	"scene":0,
	"scenes":[
		{
			"name":"Scene",
			"nodes":[
				0,
				1,
				2,
				3,
				4,
				5
			]
		}
	],
	"nodes":[
		{
			"mesh":0,
			"name":"Foundation_Cornices"
		},
		{
			"mesh":1,
			"name":"Frames_And_Doors"
		},
		{
			"mesh":2,
			"name":"Glazing_Panes"
		},
		{
			"mesh":3,
			"name":"Metal_Details"
		},
		{
			"mesh":4,
			"name":"Roof_Structure"
		},
		{
			"mesh":5,
			"name":"Walls_Facade"
		}
	],
	"materials":[
		{
			"doubleSided":true,
			"name":"Concrete05",
			"normalTexture":{
				"index":0
			},
			"pbrMetallicRoughness":{
				"baseColorTexture":{
					"index":1
				},
				"metallicFactor":0,
				"roughnessFactor":0.75
			}
		},
		{
			"doubleSided":true,
			"name":"Wood01",
			"pbrMetallicRoughness":{
				"baseColorTexture":{
					"index":2
				},
				"metallicFactor":0,
				"roughnessFactor":0.5
			}
		},
		{
			"alphaMode":"BLEND",
			"doubleSided":true,
			"extensions":{
				"KHR_materials_transmission":{
					"transmissionFactor":0.8999999761581421
				},
				"KHR_materials_ior":{
					"ior":1.5199999809265137
				}
			},
			"name":"Translucent_Glass_Gray",
			"pbrMetallicRoughness":{
				"baseColorFactor":[
					0.75,
					0.8199999928474426,
					0.8799999952316284,
					0.3499999940395355
				],
				"metallicFactor":0.05000000074505806,
				"roughnessFactor":0.05000000074505806
			}
		},
		{
			"doubleSided":true,
			"name":"Metal",
			"pbrMetallicRoughness":{
				"baseColorFactor":[
					0.18000000715255737,
					0.1899999976158142,
					0.20000000298023224,
					1
				],
				"metallicFactor":0.949999988079071,
				"roughnessFactor":0.25
			}
		},
		{
			"doubleSided":true,
			"name":"Roof01",
			"pbrMetallicRoughness":{
				"baseColorTexture":{
					"index":3
				},
				"metallicFactor":0.05000000074505806,
				"roughnessFactor":0.6000000238418579
			}
		},
		{
			"doubleSided":true,
			"name":"Bricks026",
			"normalTexture":{
				"index":4
			},
			"pbrMetallicRoughness":{
				"baseColorTexture":{
					"index":5
				},
				"metallicFactor":0,
				"roughnessFactor":0.8500000238418579
			}
		}
	],
	"meshes":[
		{
			"name":"Foundation_Cornices_Mesh",
			"primitives":[
				{
					"attributes":{
						"POSITION":0,
						"NORMAL":1,
						"TEXCOORD_0":2
					},
					"indices":3,
					"material":0
				}
			]
		},
		{
			"name":"Frames_And_Doors_Mesh",
			"primitives":[
				{
					"attributes":{
						"POSITION":4,
						"NORMAL":5,
						"TEXCOORD_0":6
					},
					"indices":7,
					"material":1
				}
			]
		},
		{
			"name":"Glazing_Panes_Mesh",
			"primitives":[
				{
					"attributes":{
						"POSITION":8,
						"NORMAL":9,
						"TEXCOORD_0":10
					},
					"indices":11,
					"material":2
				}
			]
		},
		{
			"name":"Metal_Details_Mesh",
			"primitives":[
				{
					"attributes":{
						"POSITION":12,
						"NORMAL":13,
						"TEXCOORD_0":14
					},
					"indices":15,
					"material":3
				}
			]
		},
		{
			"name":"Roof_Structure_Mesh",
			"primitives":[
				{
					"attributes":{
						"POSITION":16,
						"NORMAL":17,
						"TEXCOORD_0":18
					},
					"indices":19,
					"material":4
				}
			]
		},
		{
			"name":"Walls_Facade_Mesh",
			"primitives":[
				{
					"attributes":{
						"POSITION":20,
						"NORMAL":21,
						"TEXCOORD_0":22
					},
					"indices":23,
					"material":5
				}
			]
		}
	],
	"textures":[
		{
			"sampler":0,
			"source":0
		},
		{
			"sampler":0,
			"source":1
		},
		{
			"sampler":0,
			"source":2
		},
		{
			"sampler":0,
			"source":3
		},
		{
			"sampler":0,
			"source":4
		},
		{
			"sampler":0,
			"source":5
		}
	],
	"images":[
		{
			"mimeType":"image/png",
			"name":"Concrete05_normal",
			"uri":"Concrete05_normal.png"
		},
		{
			"mimeType":"image/jpeg",
			"name":"Concrete05_baseColor",
			"uri":"Concrete05_baseColor.jpg"
		},
		{
			"mimeType":"image/jpeg",
			"name":"Wood01_baseColor",
			"uri":"Wood01_baseColor.jpg"
		},
		{
			"mimeType":"image/jpeg",
			"name":"Roof01_baseColor",
			"uri":"Roof01_baseColor.jpg"
		},
		{
			"mimeType":"image/png",
			"name":"Bricks026_normal",
			"uri":"Bricks026_normal.png"
		},
		{
			"mimeType":"image/jpeg",
			"name":"Bricks026_baseColor",
			"uri":"Bricks026_baseColor.jpg"
		}
	],
	"accessors":[
		{
			"bufferView":0,
			"componentType":5126,
			"count":7644,
			"max":[
				6.880000114440918,
				14.5,
				8.680000305175781
			],
			"min":[
				-6.880000114440918,
				0,
				-8.279999732971191
			],
			"type":"VEC3"
		},
		{
			"bufferView":1,
			"componentType":5126,
			"count":7644,
			"type":"VEC3"
		},
		{
			"bufferView":2,
			"componentType":5126,
			"count":7644,
			"type":"VEC2"
		},
		{
			"bufferView":3,
			"componentType":5123,
			"count":11460,
			"type":"SCALAR"
		},
		{
			"bufferView":4,
			"componentType":5126,
			"count":5592,
			"max":[
				7.150000095367432,
				12.270282745361328,
				7.400000095367432
			],
			"min":[
				-7.150000095367432,
				0.75,
				-5.849999904632568
			],
			"type":"VEC3"
		},
		{
			"bufferView":5,
			"componentType":5126,
			"count":5592,
			"type":"VEC3"
		},
		{
			"bufferView":6,
			"componentType":5126,
			"count":5592,
			"type":"VEC2"
		},
		{
			"bufferView":7,
			"componentType":5123,
			"count":8388,
			"type":"SCALAR"
		},
		{
			"bufferView":8,
			"componentType":5126,
			"count":3000,
			"max":[
				6.559999942779541,
				11.869999885559082,
				5.579999923706055
			],
			"min":[
				-6.550000190734863,
				1.1299999952316284,
				-5.179999828338623
			],
			"type":"VEC3"
		},
		{
			"bufferView":9,
			"componentType":5126,
			"count":3000,
			"type":"VEC3"
		},
		{
			"bufferView":10,
			"componentType":5126,
			"count":3000,
			"type":"VEC2"
		},
		{
			"bufferView":11,
			"componentType":5123,
			"count":4500,
			"type":"SCALAR"
		},
		{
			"bufferView":12,
			"componentType":5126,
			"count":3960,
			"max":[
				7.289999961853027,
				14.949999809265137,
				7.53000020980835
			],
			"min":[
				-7.289999961853027,
				0.0793948695063591,
				-5.989999771118164
			],
			"type":"VEC3"
		},
		{
			"bufferView":13,
			"componentType":5126,
			"count":3960,
			"type":"VEC3"
		},
		{
			"bufferView":14,
			"componentType":5126,
			"count":3960,
			"type":"VEC2"
		},
		{
			"bufferView":15,
			"componentType":5123,
			"count":6792,
			"type":"SCALAR"
		},
		{
			"bufferView":16,
			"componentType":5126,
			"count":254,
			"max":[
				7.219422817230225,
				13.579999923706055,
				5.8960700035095215
			],
			"min":[
				-7.219422817230225,
				10.775546073913574,
				-5.8960700035095215
			],
			"type":"VEC3"
		},
		{
			"bufferView":17,
			"componentType":5126,
			"count":254,
			"type":"VEC3"
		},
		{
			"bufferView":18,
			"componentType":5126,
			"count":254,
			"type":"VEC2"
		},
		{
			"bufferView":19,
			"componentType":5123,
			"count":438,
			"type":"SCALAR"
		},
		{
			"bufferView":20,
			"componentType":5126,
			"count":2965,
			"max":[
				6.5,
				14.149999618530273,
				5.599999904632568
			],
			"min":[
				-6.5,
				0.75,
				-5.199999809265137
			],
			"type":"VEC3"
		},
		{
			"bufferView":21,
			"componentType":5126,
			"count":2965,
			"type":"VEC3"
		},
		{
			"bufferView":22,
			"componentType":5126,
			"count":2965,
			"type":"VEC2"
		},
		{
			"bufferView":23,
			"componentType":5123,
			"count":4500,
			"type":"SCALAR"
		}
	],
	"bufferViews":[
		{
			"buffer":0,
			"byteLength":91728,
			"byteOffset":0,
			"target":34962
		},
		{
			"buffer":0,
			"byteLength":91728,
			"byteOffset":91728,
			"target":34962
		},
		{
			"buffer":0,
			"byteLength":61152,
			"byteOffset":183456,
			"target":34962
		},
		{
			"buffer":0,
			"byteLength":22920,
			"byteOffset":244608,
			"target":34963
		},
		{
			"buffer":0,
			"byteLength":67104,
			"byteOffset":267528,
			"target":34962
		},
		{
			"buffer":0,
			"byteLength":67104,
			"byteOffset":334632,
			"target":34962
		},
		{
			"buffer":0,
			"byteLength":44736,
			"byteOffset":401736,
			"target":34962
		},
		{
			"buffer":0,
			"byteLength":16776,
			"byteOffset":446472,
			"target":34963
		},
		{
			"buffer":0,
			"byteLength":36000,
			"byteOffset":463248,
			"target":34962
		},
		{
			"buffer":0,
			"byteLength":36000,
			"byteOffset":499248,
			"target":34962
		},
		{
			"buffer":0,
			"byteLength":24000,
			"byteOffset":535248,
			"target":34962
		},
		{
			"buffer":0,
			"byteLength":9000,
			"byteOffset":559248,
			"target":34963
		},
		{
			"buffer":0,
			"byteLength":47520,
			"byteOffset":568248,
			"target":34962
		},
		{
			"buffer":0,
			"byteLength":47520,
			"byteOffset":615768,
			"target":34962
		},
		{
			"buffer":0,
			"byteLength":31680,
			"byteOffset":663288,
			"target":34962
		},
		{
			"buffer":0,
			"byteLength":13584,
			"byteOffset":694968,
			"target":34963
		},
		{
			"buffer":0,
			"byteLength":3048,
			"byteOffset":708552,
			"target":34962
		},
		{
			"buffer":0,
			"byteLength":3048,
			"byteOffset":711600,
			"target":34962
		},
		{
			"buffer":0,
			"byteLength":2032,
			"byteOffset":714648,
			"target":34962
		},
		{
			"buffer":0,
			"byteLength":876,
			"byteOffset":716680,
			"target":34963
		},
		{
			"buffer":0,
			"byteLength":35580,
			"byteOffset":717556,
			"target":34962
		},
		{
			"buffer":0,
			"byteLength":35580,
			"byteOffset":753136,
			"target":34962
		},
		{
			"buffer":0,
			"byteLength":23720,
			"byteOffset":788716,
			"target":34962
		},
		{
			"buffer":0,
			"byteLength":9000,
			"byteOffset":812436,
			"target":34963
		}
	],
	"samplers":[
		{
			"magFilter":9729,
			"minFilter":9987
		}
	],
	"buffers":[
		{
			"byteLength":821436,
			"uri":"scene.bin"
		}
	]
}
